<svg xmlns="http://www.w3.org/2000/svg" xmlns:xlink="http://www.w3.org/1999/xlink" width="77" zoomAndPan="magnify" viewBox="0 0 57.75 61.499998" height="82" preserveAspectRatio="xMidYMid meet" version="1.0"><defs><clipPath id="85addb38ac"><path d="M 0.109375 0 L 57.394531 0 L 57.394531 61.003906 L 0.109375 61.003906 Z M 0.109375 0 " clip-rule="nonzero"/></clipPath><clipPath id="f60d25c67a"><path d="M 17.992188 0.296875 L 45.152344 0.296875 L 45.152344 31.277344 L 17.992188 31.277344 Z M 17.992188 0.296875 " clip-rule="nonzero"/></clipPath><clipPath id="604768a347"><path d="M 32.855469 0.738281 L 43.867188 7.144531 C 44.660156 7.609375 45.152344 8.460938 45.152344 9.378906 L 45.152344 22.207031 C 45.152344 23.128906 44.660156 23.980469 43.867188 24.445312 L 32.855469 30.847656 C 32.0625 31.3125 31.078125 31.3125 30.285156 30.847656 L 19.277344 24.445312 C 18.480469 23.980469 17.992188 23.128906 17.992188 22.207031 L 17.992188 9.378906 C 17.992188 8.460938 18.480469 7.609375 19.277344 7.144531 L 30.285156 0.738281 C 31.078125 0.277344 32.0625 0.277344 32.855469 0.738281 Z M 32.855469 0.738281 " clip-rule="nonzero"/></clipPath><clipPath id="468b9e0627"><path d="M 33.566406 26.316406 L 56.652344 26.316406 L 56.652344 52.367188 L 33.566406 52.367188 Z M 33.566406 26.316406 " clip-rule="nonzero"/></clipPath><clipPath id="797cf5d9a9"><path d="M 46.441406 26.714844 L 55.367188 31.90625 C 56.164062 32.371094 56.652344 33.222656 56.652344 34.144531 L 56.652344 44.550781 C 56.652344 45.46875 56.164062 46.320312 55.367188 46.785156 L 46.441406 51.980469 C 45.644531 52.441406 44.664062 52.441406 43.867188 51.980469 L 34.941406 46.785156 C 34.144531 46.320312 33.65625 45.46875 33.65625 44.550781 L 33.65625 34.144531 C 33.65625 33.222656 34.144531 32.371094 34.941406 31.90625 L 43.867188 26.714844 C 44.664062 26.25 45.644531 26.25 46.441406 26.714844 Z M 46.441406 26.714844 " clip-rule="nonzero"/></clipPath><clipPath id="97d3c25c34"><path d="M 0.109375 24.660156 L 31.574219 24.660156 L 31.574219 60.550781 L 0.109375 60.550781 Z M 0.109375 24.660156 " clip-rule="nonzero"/></clipPath><clipPath id="688ade6f3d"><path d="M 17.128906 25.054688 L 30.289062 32.710938 C 31.082031 33.171875 31.574219 34.023438 31.574219 34.945312 L 31.574219 50.277344 C 31.574219 51.199219 31.082031 52.050781 30.289062 52.511719 L 17.128906 60.167969 C 16.332031 60.632812 15.351562 60.632812 14.554688 60.167969 L 1.394531 52.511719 C 0.597656 52.050781 0.109375 51.199219 0.109375 50.277344 L 0.109375 34.945312 C 0.109375 34.023438 0.597656 33.171875 1.394531 32.710938 L 14.554688 25.054688 C 15.351562 24.589844 16.332031 24.589844 17.128906 25.054688 Z M 17.128906 25.054688 " clip-rule="nonzero"/></clipPath></defs><g clip-path="url(#85addb38ac)"><path fill="#ffffff" d="M 0.109375 0 L 57.394531 0 L 57.394531 61.003906 L 0.109375 61.003906 Z M 0.109375 0 " fill-opacity="1" fill-rule="nonzero"/></g><g clip-path="url(#f60d25c67a)"><g clip-path="url(#604768a347)"><path fill="#353c3e" d="M 17.992188 31.597656 L 17.992188 -0.0195312 L 45.152344 -0.0195312 L 45.152344 31.597656 Z M 17.992188 31.597656 " fill-opacity="1" fill-rule="nonzero"/></g></g><g clip-path="url(#468b9e0627)"><g clip-path="url(#797cf5d9a9)"><path fill="#12bf65" d="M 33.65625 52.726562 L 33.65625 25.957031 L 56.652344 25.957031 L 56.652344 52.726562 Z M 33.65625 52.726562 " fill-opacity="1" fill-rule="nonzero"/></g></g><g clip-path="url(#97d3c25c34)"><g clip-path="url(#688ade6f3d)"><path fill="#12bf65" d="M 0.109375 60.917969 L 0.109375 24.292969 L 31.574219 24.292969 L 31.574219 60.917969 Z M 0.109375 60.917969 " fill-opacity="1" fill-rule="nonzero"/></g></g></svg>